<svg width="28" height="28" viewBox="0 0 28 28" fill="none" xmlns="http://www.w3.org/2000/svg">
<path d="M14 9.33334C19.799 9.33334 24.5 7.76633 24.5 5.83334C24.5 3.90034 19.799 2.33334 14 2.33334C8.20101 2.33334 3.5 3.90034 3.5 5.83334C3.5 7.76633 8.20101 9.33334 14 9.33334Z" stroke="white" stroke-width="1.75" stroke-linecap="round" stroke-linejoin="round"/>
<path d="M3.5 5.83334V22.1667C3.5 23.0949 4.60625 23.9852 6.57538 24.6415C8.54451 25.2979 11.2152 25.6667 14 25.6667C16.7848 25.6667 19.4555 25.2979 21.4246 24.6415C23.3938 23.9852 24.5 23.0949 24.5 22.1667V5.83334" stroke="white" stroke-width="1.75" stroke-linecap="round" stroke-linejoin="round"/>
<path d="M3.5 14C3.5 14.9283 4.60625 15.8185 6.57538 16.4749C8.54451 17.1313 11.2152 17.5 14 17.5C16.7848 17.5 19.4555 17.1313 21.4246 16.4749C23.3938 15.8185 24.5 14.9283 24.5 14" stroke="white" stroke-width="1.75" stroke-linecap="round" stroke-linejoin="round"/>
</svg>
